<svg width="57" height="39" viewBox="0 0 57 39" fill="none" xmlns="http://www.w3.org/2000/svg">
<path d="M37.5914 38.6284H0V0H37.5914V13.2165H35.8487V1.79073H1.74083V36.8377H35.8487V25.3256H37.5914V38.6284Z" fill="#F96156"/>
<path d="M7.6792 15.3474H9.42551V18.7674L11.9244 15.3474H14.0196L11.1499 18.9701L14.2479 23.1973H12.034L9.42551 19.4619V23.1973H7.6792V15.3474Z" fill="#F96156"/>
<path d="M18.8021 21.5791C20.2105 21.5791 20.9412 20.5561 20.9412 19.2722C20.9412 17.8793 19.9986 16.9652 18.8021 16.9652C17.5746 16.9652 16.6649 17.8793 16.6649 19.2722C16.6649 20.5767 17.6166 21.5791 18.8021 21.5791ZM18.8021 15.334C21.0581 15.334 22.7423 16.8451 22.7423 19.2722C22.7423 21.5791 21.0581 23.2103 18.8021 23.2103C16.548 23.2103 14.8638 21.6974 14.8638 19.2722C14.8638 17.0628 16.442 15.334 18.8021 15.334Z" fill="#F96156"/>
<path d="M30.0854 23.1968L26.4631 18.4871V23.1968H24.8246V15.3486H26.222L29.8461 20.0789L29.8425 15.3486H31.4792L31.4828 23.1968H30.0854Z" fill="#F96156"/>
<path d="M33.584 15.3474H39.9135V17.0293H37.621V23.1973H35.8747V17.0293H33.584V15.3474Z" fill="#F96156"/>
<path d="M48.3833 19.8206C48.3833 22.2195 46.9001 23.1955 45.2634 23.1955C43.2997 23.1955 41.9352 22.0411 41.9352 19.7418V15.3513H43.6815V19.3607C43.6815 20.5827 44.0413 21.5137 45.2634 21.5137C46.321 21.5137 46.637 20.7178 46.637 19.4621V15.3513H48.3833V19.8206Z" fill="#F96156"/>
<path d="M52.2287 17.0557V18.7938H52.8608C53.5275 18.7938 54.05 18.5461 54.05 17.8853C54.05 17.448 53.8344 17.0538 52.9941 17.0538C52.7311 17.0538 52.5886 17.0444 52.2287 17.0557ZM50.4824 23.1955V15.3513C50.908 15.3513 52.8608 15.3513 53.08 15.3513C55.1642 15.3513 55.9059 16.4156 55.9059 17.8628C55.9059 19.3194 55.0327 19.9144 54.6181 20.1284L56.8265 23.1955H54.7094L52.8717 20.4757H52.2287V23.1955H50.4824Z" fill="#F96156"/>
</svg>
